<?xml version="1.0" encoding="UTF-8"?>
<svg id="Logos" xmlns="http://www.w3.org/2000/svg" viewBox="0 0 1000 291.82">
  <defs>
    <style>
      .cls-1 {
        fill: #212630;
      }
    </style>
  </defs>
  <g>
    <path class="cls-1" d="M563.01,40.36c0-6.11.92-11.64,2.75-16.57,1.83-4.93,4.43-9.17,7.8-12.73,3.36-3.55,7.4-6.29,12.1-8.2C590.36.96,595.5,0,601.08,0h1.38C608.03,0,613.16.96,617.82,2.87c4.66,1.91,8.68,4.66,12.04,8.26,3.36,3.59,5.98,7.86,7.85,12.79,1.87,4.93,2.81,10.42,2.81,16.45v2.29c0,6.04-.94,11.52-2.81,16.45-1.87,4.93-4.49,9.19-7.85,12.78-3.37,3.59-7.38,6.35-12.04,8.26-4.66,1.91-9.79,2.87-15.36,2.87h-1.49c-5.5,0-10.59-.96-15.25-2.87-4.66-1.91-8.68-4.66-12.04-8.26-3.37-3.59-5.98-7.85-7.86-12.78-1.87-4.93-2.81-10.42-2.81-16.45v-2.29ZM580.27,53.84c1.18,3.33,2.77,6.15,4.76,8.49,1.99,2.33,4.36,4.13,7.11,5.39,2.75,1.26,5.77,1.89,9.06,1.89h1.15c3.29,0,6.31-.63,9.06-1.89,2.75-1.26,5.12-3.06,7.11-5.39,1.99-2.33,3.53-5.16,4.64-8.49,1.11-3.33,1.66-7.05,1.66-11.18v-2.29c0-4.13-.56-7.85-1.66-11.18-1.11-3.33-2.66-6.13-4.64-8.43-1.99-2.29-4.36-4.09-7.11-5.39-2.75-1.3-5.77-1.95-9.06-1.95h-1.15c-3.29,0-6.31.65-9.06,1.95-2.75,1.3-5.14,3.1-7.17,5.39-2.03,2.29-3.61,5.1-4.76,8.43-1.15,3.33-1.72,7.05-1.72,11.18v2.29c0,4.13.59,7.85,1.78,11.18Z"/>
    <path class="cls-1" d="M650.27,22.02h11.24c.38.92.71,2.03.97,3.33.27,1.3.48,2.56.63,3.78,2.29-2.6,5.06-4.62,8.31-6.08,3.25-1.45,6.82-2.18,10.72-2.18h1.03c3.82,0,7.36.71,10.61,2.12,3.25,1.42,6.04,3.42,8.37,6.02,2.33,2.6,4.15,5.7,5.45,9.29,1.3,3.59,1.95,7.57,1.95,11.93v3.21c0,4.36-.65,8.31-1.95,11.87-1.3,3.55-3.12,6.65-5.45,9.29-2.33,2.64-5.12,4.66-8.37,6.08-3.25,1.41-6.79,2.12-10.61,2.12h-1.03c-3.59,0-6.86-.59-9.8-1.78-2.94-1.18-5.56-2.92-7.85-5.22v28.78h-14.22V22.02ZM680.08,71.44c2.22,0,4.22-.46,6.02-1.38,1.8-.92,3.33-2.16,4.59-3.73,1.26-1.57,2.25-3.5,2.98-5.79.73-2.29,1.09-4.78,1.09-7.45v-2.87c0-2.67-.36-5.12-1.09-7.34-.73-2.22-1.72-4.11-2.98-5.68-1.26-1.57-2.79-2.79-4.59-3.67-1.8-.88-3.8-1.32-6.02-1.32h-.92c-2.22,0-4.22.44-6.02,1.32-1.8.88-3.34,2.12-4.64,3.73-1.3,1.61-2.31,3.5-3.04,5.68-.73,2.18-1.09,4.61-1.09,7.28v2.87c0,2.68.38,5.16,1.15,7.45.76,2.29,1.8,4.22,3.1,5.79,1.3,1.57,2.83,2.81,4.59,3.73,1.76.92,3.74,1.38,5.96,1.38h.92Z"/>
    <path class="cls-1" d="M732.26,80.61c-3.59-1.45-6.69-3.46-9.29-6.02-2.6-2.56-4.61-5.66-6.02-9.29-1.41-3.63-2.12-7.63-2.12-11.98v-2.29c0-4.43.73-8.49,2.18-12.15,1.45-3.67,3.42-6.82,5.91-9.46,2.48-2.64,5.5-4.7,9.06-6.19,3.55-1.49,7.47-2.24,11.75-2.24h1.38c3.9,0,7.49.67,10.78,2.01,3.29,1.34,6.12,3.23,8.49,5.68,2.37,2.45,4.19,5.33,5.45,8.66,1.26,3.33,1.89,7.05,1.89,11.18v7.8h-42.66c.23,2.14.75,4.13,1.55,5.96.8,1.83,1.89,3.36,3.27,4.59,1.38,1.22,3.02,2.2,4.93,2.92,1.91.73,4.01,1.09,6.31,1.09h1.15c3.59,0,6.71-.75,9.34-2.24,2.64-1.49,4.83-3.34,6.59-5.56l7.91,8.6c-1.45,1.68-3.1,3.21-4.93,4.59-1.83,1.38-3.78,2.52-5.85,3.44-2.06.92-4.24,1.66-6.54,2.24-2.29.57-4.63.86-6.99.86h-1.6c-4.36,0-8.33-.73-11.93-2.18ZM758.29,46.67v-.23c-.15-2.22-.57-4.2-1.26-5.96-.69-1.76-1.6-3.27-2.75-4.53s-2.52-2.22-4.13-2.87c-1.6-.65-3.4-.97-5.39-.97h-1.03c-1.91,0-3.69.34-5.33,1.03-1.64.69-3.08,1.64-4.3,2.87-1.22,1.22-2.24,2.73-3.04,4.53-.8,1.8-1.4,3.84-1.78,6.13h29.01Z"/>
    <path class="cls-1" d="M780.87,22.02h11.12c.46,1.15.86,2.52,1.2,4.13.34,1.61.55,3.06.63,4.36,2.52-2.98,5.54-5.33,9.06-7.05,3.52-1.72,7.38-2.58,11.58-2.58h.57c6.57,0,11.6,1.95,15.08,5.85,3.48,3.9,5.22,9.48,5.22,16.74v38.18h-14.22v-35.2c0-4.36-.88-7.64-2.64-9.86-1.76-2.22-4.55-3.33-8.37-3.33h-.69c-2.14,0-4.09.38-5.85,1.15-1.76.77-3.27,1.83-4.53,3.21-1.26,1.38-2.26,3.02-2.98,4.93-.73,1.91-1.09,4.09-1.09,6.54v32.57h-14.1V22.02Z"/>
    <path class="cls-1" d="M567.83,105.89h21.44l18.23,50.11h.8l18.12-50.11h21.44v80.27h-14.68v-62.15h-.69l-18.81,51.26h-11.58l-18.81-51.26h-.8v62.15h-14.68v-80.27Z"/>
    <path class="cls-1" d="M670.57,186.04c-2.45-.84-4.55-2.02-6.31-3.55-1.76-1.53-3.12-3.38-4.07-5.56-.96-2.18-1.43-4.6-1.43-7.28v-1.15c0-6.42,2.75-11.22,8.26-14.39,5.5-3.17,13.99-4.76,25.46-4.76h4.82v-2.52c0-3.06-.96-5.47-2.87-7.22-1.91-1.76-4.7-2.64-8.37-2.64h-.69c-2.91,0-5.91.52-9,1.55s-6.1,2.54-9,4.53l-5.62-10.09c3.59-2.37,7.51-4.22,11.75-5.56,4.24-1.34,8.54-2.01,12.9-2.01h1.03c3.59,0,6.84.48,9.75,1.43,2.9.96,5.37,2.37,7.4,4.24,2.02,1.87,3.55,4.15,4.59,6.82,1.03,2.68,1.55,5.7,1.55,9.06v26.95c0,2.14.21,4.24.63,6.31.42,2.06.94,4.05,1.55,5.96h-13.53c-.46-.84-.8-1.89-1.03-3.15-.23-1.26-.42-2.5-.57-3.73-2.52,2.52-5.43,4.49-8.71,5.91s-6.8,2.12-10.55,2.12c-2.83,0-5.47-.42-7.91-1.26ZM690.23,173.89c2.71-1.3,5.06-3.1,7.05-5.39v-9.98h-3.55c-7.34,0-12.73.74-16.17,2.24-3.44,1.49-5.16,3.84-5.16,7.05v.57c0,1.15.23,2.16.69,3.04.46.88,1.09,1.66,1.89,2.35.8.69,1.78,1.2,2.92,1.55,1.15.34,2.37.52,3.67.52,3.06,0,5.94-.65,8.66-1.95Z"/>
    <path class="cls-1" d="M723.66,126.53h11.12c.38,1.07.74,2.37,1.09,3.9.34,1.53.55,2.91.63,4.13,2.22-2.52,4.83-4.49,7.85-5.91,3.02-1.41,6.36-2.12,10.03-2.12h1.61v13.65c-.54-.15-1.22-.27-2.06-.34-.84-.08-1.61-.12-2.29-.12-2.29,0-4.28.31-5.96.92-1.68.61-3.1,1.55-4.24,2.81-1.15,1.26-2.03,2.83-2.64,4.7-.61,1.87-.92,4.03-.92,6.48v31.53h-14.22v-59.63Z"/>
    <path class="cls-1" d="M764.13,103.6h14.22v48.05h.92l21.9-25.11h15.94l-25.11,27.64,25.8,31.99h-16.97l-21.56-28.32h-.92v28.32h-14.22v-82.56Z"/>
    <path class="cls-1" d="M834.31,185.13c-3.59-1.45-6.69-3.46-9.29-6.02-2.6-2.56-4.61-5.66-6.02-9.29-1.41-3.63-2.12-7.63-2.12-11.98v-2.29c0-4.43.73-8.49,2.18-12.16,1.45-3.67,3.42-6.82,5.91-9.46,2.48-2.64,5.5-4.7,9.06-6.19,3.55-1.49,7.47-2.24,11.75-2.24h1.38c3.9,0,7.49.67,10.78,2.01,3.29,1.34,6.12,3.23,8.49,5.68,2.37,2.45,4.19,5.33,5.45,8.66,1.26,3.33,1.89,7.05,1.89,11.18v7.8h-42.66c.23,2.14.75,4.13,1.55,5.96.8,1.83,1.89,3.36,3.27,4.59,1.38,1.22,3.02,2.2,4.93,2.92,1.91.73,4.01,1.09,6.31,1.09h1.15c3.59,0,6.71-.75,9.34-2.24,2.64-1.49,4.83-3.34,6.59-5.56l7.91,8.6c-1.45,1.68-3.1,3.21-4.93,4.59-1.83,1.38-3.78,2.52-5.85,3.44-2.06.92-4.24,1.66-6.54,2.24-2.29.57-4.63.86-6.99.86h-1.6c-4.36,0-8.33-.73-11.93-2.18ZM860.34,151.19v-.23c-.15-2.22-.57-4.2-1.26-5.96-.69-1.76-1.6-3.27-2.75-4.53s-2.52-2.22-4.13-2.87c-1.6-.65-3.4-.97-5.39-.97h-1.03c-1.91,0-3.69.34-5.33,1.03-1.64.69-3.08,1.64-4.3,2.87s-2.24,2.73-3.04,4.53c-.8,1.8-1.4,3.84-1.78,6.14h29.01Z"/>
    <path class="cls-1" d="M894.8,185.64c-2.1-.73-3.88-1.83-5.33-3.33-1.45-1.49-2.56-3.36-3.33-5.62-.77-2.25-1.15-4.95-1.15-8.08v-30.62h-7.91v-9.63c1.07-.38,2.31-.75,3.73-1.09,1.41-.34,2.81-.55,4.19-.63v-13.87l14.1-1.72v15.48h16.28v11.47h-16.4v27.86c0,3.29.61,5.54,1.83,6.77,1.22,1.22,2.98,1.83,5.27,1.83.76,0,1.57-.02,2.41-.06.84-.04,1.72-.13,2.64-.29.92-.15,1.82-.31,2.69-.46.88-.15,1.59-.3,2.12-.46v11.24c-1.76.84-4,1.43-6.71,1.78-2.71.34-5.14.52-7.28.52-2.68,0-5.07-.36-7.17-1.09Z"/>
    <path class="cls-1" d="M931.03,185.13c-4.55-1.53-8.58-3.67-12.1-6.42l7.11-10.32c1.3,1.22,2.71,2.26,4.24,3.1,1.53.84,3.13,1.57,4.82,2.18,1.68.61,3.4,1.09,5.16,1.43,1.76.34,3.48.52,5.16.52,1.53,0,2.88-.13,4.07-.4,1.18-.27,2.16-.67,2.92-1.2.76-.53,1.36-1.22,1.78-2.06.42-.84.63-1.76.63-2.75,0-1.53-.38-2.69-1.15-3.5-.76-.8-1.89-1.49-3.38-2.06-1.49-.57-3.29-1.13-5.39-1.66-2.1-.53-4.49-1.3-7.17-2.29-1.99-.53-3.98-1.18-5.96-1.95-1.99-.76-3.78-1.76-5.39-2.98-1.61-1.22-2.87-2.77-3.78-4.64-.92-1.87-1.38-4.11-1.38-6.71,0-2.83.5-5.35,1.49-7.57.99-2.22,2.43-4.09,4.3-5.62,1.87-1.53,4.15-2.73,6.82-3.61,2.67-.88,5.66-1.32,8.94-1.32,4.2,0,8.31.69,12.33,2.06,4.01,1.38,7.59,3.17,10.72,5.39l-6.65,10.09c-2.45-1.76-5.12-3.15-8.03-4.19-2.91-1.03-5.85-1.55-8.83-1.55-1.3,0-2.45.11-3.44.34-1,.23-1.83.59-2.52,1.09-.69.5-1.22,1.09-1.61,1.78-.38.69-.57,1.53-.57,2.52,0,1.22.4,2.24,1.2,3.04s1.81,1.51,3.04,2.12c1.22.61,2.68,1.11,4.36,1.49,1.68.38,3.44.8,5.27,1.26,2.37.54,4.78,1.2,7.22,2.01,2.45.8,4.64,1.87,6.59,3.21,1.95,1.34,3.54,3.02,4.76,5.05,1.22,2.03,1.83,4.64,1.83,7.85,0,2.91-.54,5.49-1.6,7.74-1.07,2.26-2.58,4.17-4.53,5.73-1.95,1.57-4.34,2.81-7.17,3.73-2.83.92-5.96,1.38-9.4,1.38-5.28,0-10.19-.77-14.73-2.29Z"/>
    <path class="cls-1" d="M567.83,210.41h15.02v80.27h-15.02v-80.27Z"/>
    <path class="cls-1" d="M597.64,231.05h11.12c.46,1.15.86,2.52,1.2,4.13.34,1.6.55,3.06.63,4.36,2.52-2.98,5.54-5.33,9.06-7.05,3.52-1.72,7.38-2.58,11.58-2.58h.57c6.57,0,11.6,1.95,15.08,5.85,3.48,3.9,5.22,9.48,5.22,16.74v38.18h-14.22v-35.2c0-4.36-.88-7.64-2.64-9.86-1.76-2.22-4.55-3.33-8.37-3.33h-.69c-2.14,0-4.09.38-5.85,1.15-1.76.77-3.27,1.83-4.53,3.21s-2.26,3.02-2.98,4.93c-.73,1.91-1.09,4.09-1.09,6.54v32.57h-14.1v-59.63Z"/>
    <path class="cls-1" d="M665.29,219.7c-1.53-1.38-2.29-3.21-2.29-5.5s.76-4.17,2.29-5.62c1.53-1.45,3.51-2.18,5.96-2.18s4.57.73,6.13,2.18c1.57,1.45,2.35,3.33,2.35,5.62s-.78,4.13-2.35,5.5c-1.57,1.38-3.61,2.06-6.13,2.06s-4.43-.69-5.96-2.06ZM664.26,231.05h14.22v59.63h-14.22v-59.63Z"/>
    <path class="cls-1" d="M703.65,290.16c-2.1-.73-3.88-1.83-5.33-3.33-1.45-1.49-2.56-3.36-3.33-5.62-.77-2.25-1.15-4.95-1.15-8.08v-30.62h-7.91v-9.63c1.07-.38,2.31-.75,3.73-1.09,1.41-.34,2.81-.55,4.19-.63v-13.87l14.1-1.72v15.48h16.28v11.47h-16.4v27.86c0,3.29.61,5.54,1.83,6.77,1.22,1.22,2.98,1.83,5.27,1.83.76,0,1.57-.02,2.41-.06.84-.04,1.72-.13,2.64-.29.92-.15,1.82-.31,2.69-.46.88-.15,1.59-.3,2.12-.46v11.24c-1.76.84-4,1.43-6.71,1.78-2.71.34-5.14.52-7.28.52-2.68,0-5.07-.36-7.17-1.09Z"/>
    <path class="cls-1" d="M734.43,219.7c-1.53-1.38-2.29-3.21-2.29-5.5s.76-4.17,2.29-5.62c1.53-1.45,3.51-2.18,5.96-2.18s4.57.73,6.13,2.18c1.57,1.45,2.35,3.33,2.35,5.62s-.78,4.13-2.35,5.5c-1.57,1.38-3.61,2.06-6.13,2.06s-4.43-.69-5.96-2.06ZM733.4,231.05h14.22v59.63h-14.22v-59.63Z"/>
    <path class="cls-1" d="M768.83,290.56c-2.45-.84-4.55-2.02-6.31-3.55-1.76-1.53-3.12-3.38-4.07-5.56-.96-2.18-1.43-4.6-1.43-7.28v-1.15c0-6.42,2.75-11.22,8.26-14.39,5.5-3.17,13.99-4.76,25.46-4.76h4.82v-2.52c0-3.06-.96-5.47-2.87-7.22-1.91-1.76-4.7-2.64-8.37-2.64h-.69c-2.91,0-5.91.52-9,1.55s-6.1,2.54-9,4.53l-5.62-10.09c3.59-2.37,7.51-4.22,11.75-5.56,4.24-1.34,8.54-2.01,12.9-2.01h1.03c3.59,0,6.84.48,9.75,1.43,2.9.96,5.37,2.37,7.4,4.24,2.02,1.87,3.55,4.15,4.59,6.82,1.03,2.68,1.55,5.7,1.55,9.06v26.95c0,2.14.21,4.24.63,6.31.42,2.06.94,4.05,1.55,5.96h-13.53c-.46-.84-.8-1.89-1.03-3.15-.23-1.26-.42-2.5-.57-3.73-2.52,2.52-5.43,4.49-8.71,5.91s-6.8,2.12-10.55,2.12c-2.83,0-5.47-.42-7.91-1.26ZM788.5,278.41c2.71-1.3,5.06-3.1,7.05-5.39v-9.98h-3.55c-7.34,0-12.73.74-16.17,2.24-3.44,1.49-5.16,3.84-5.16,7.05v.57c0,1.15.23,2.16.69,3.04.46.88,1.09,1.66,1.89,2.35.8.69,1.78,1.2,2.92,1.55,1.15.34,2.37.52,3.67.52,3.06,0,5.94-.65,8.66-1.95Z"/>
    <path class="cls-1" d="M833.11,290.16c-2.1-.73-3.88-1.83-5.33-3.33-1.45-1.49-2.56-3.36-3.33-5.62-.77-2.25-1.15-4.95-1.15-8.08v-30.62h-7.91v-9.63c1.07-.38,2.31-.75,3.73-1.09,1.41-.34,2.81-.55,4.19-.63v-13.87l14.1-1.72v15.48h16.28v11.47h-16.4v27.86c0,3.29.61,5.54,1.83,6.77,1.22,1.22,2.98,1.83,5.27,1.83.76,0,1.57-.02,2.41-.06.84-.04,1.72-.13,2.64-.29.92-.15,1.82-.31,2.69-.46.88-.15,1.59-.3,2.12-.46v11.24c-1.76.84-4,1.43-6.71,1.78-2.71.34-5.14.52-7.28.52-2.68,0-5.07-.36-7.17-1.09Z"/>
    <path class="cls-1" d="M863.89,219.7c-1.53-1.38-2.29-3.21-2.29-5.5s.76-4.17,2.29-5.62c1.53-1.45,3.51-2.18,5.96-2.18s4.57.73,6.13,2.18c1.57,1.45,2.35,3.33,2.35,5.62s-.78,4.13-2.35,5.5c-1.57,1.38-3.61,2.06-6.13,2.06s-4.43-.69-5.96-2.06ZM862.86,231.05h14.22v59.63h-14.22v-59.63Z"/>
    <path class="cls-1" d="M883.73,231.05h15.02l13.99,46.55h1.15l13.87-46.55h15.02l-20.64,59.63h-17.89l-20.53-59.63Z"/>
    <path class="cls-1" d="M960.55,289.64c-3.59-1.45-6.69-3.46-9.29-6.02-2.6-2.56-4.61-5.66-6.02-9.29-1.41-3.63-2.12-7.63-2.12-11.98v-2.29c0-4.43.73-8.49,2.18-12.16,1.45-3.67,3.42-6.82,5.91-9.46,2.48-2.64,5.5-4.7,9.06-6.19,3.55-1.49,7.47-2.24,11.75-2.24h1.38c3.9,0,7.49.67,10.78,2.01,3.29,1.34,6.12,3.23,8.49,5.68,2.37,2.45,4.19,5.33,5.45,8.66,1.26,3.33,1.89,7.05,1.89,11.18v7.8h-42.66c.23,2.14.75,4.13,1.55,5.96.8,1.83,1.89,3.36,3.27,4.59,1.38,1.22,3.02,2.2,4.93,2.92,1.91.73,4.01,1.09,6.31,1.09h1.15c3.59,0,6.71-.75,9.34-2.24,2.64-1.49,4.83-3.34,6.59-5.56l7.91,8.6c-1.45,1.68-3.1,3.21-4.93,4.59-1.83,1.38-3.78,2.52-5.85,3.44-2.06.92-4.24,1.66-6.54,2.24-2.29.57-4.63.86-6.99.86h-1.6c-4.36,0-8.33-.73-11.93-2.18ZM986.58,255.7v-.23c-.15-2.22-.57-4.2-1.26-5.96-.69-1.76-1.6-3.27-2.75-4.53s-2.52-2.22-4.13-2.87c-1.6-.65-3.4-.97-5.39-.97h-1.03c-1.91,0-3.69.34-5.33,1.03-1.64.69-3.08,1.64-4.3,2.87s-2.24,2.73-3.04,4.53c-.8,1.8-1.4,3.84-1.78,6.14h29.01Z"/>
  </g>
  <path class="cls-1" d="M437.52,291.82V1.36h71.7v290.46h-71.7ZM328.14,291.82V48.23h71.7v243.58h-71.7ZM93.75,291.82v-71.7h98.35c14.7,0,26.65-11.96,26.65-26.65v-98.35h71.7v98.35c0,54.23-44.12,98.35-98.35,98.35h-98.35ZM0,198.06v-98.35C0,45.48,44.12,1.36,98.35,1.36h98.35v71.7h-98.35c-14.7,0-26.65,11.96-26.65,26.65v98.35H0Z"/>
</svg>