<?xml version="1.0" encoding="UTF-8"?>
<svg id="Logos" xmlns="http://www.w3.org/2000/svg" viewBox="0 0 1000 1360.02">
  <defs>
    <style>
      .cls-1 {
        fill: #212630;
      }
    </style>
  </defs>
  <g>
    <path class="cls-1" d="M0,784.58c0-13.99,2.1-26.63,6.3-37.92,4.2-11.28,10.14-20.99,17.84-29.13,7.7-8.13,16.93-14.39,27.68-18.76,10.76-4.37,22.52-6.56,35.29-6.56h3.15c12.77,0,24.49,2.19,35.16,6.56,10.67,4.37,19.85,10.67,27.55,18.89,7.7,8.22,13.69,17.97,17.97,29.26,4.29,11.28,6.43,23.84,6.43,37.66v5.25c0,13.82-2.14,26.37-6.43,37.66-4.29,11.28-10.28,21.04-17.97,29.26-7.7,8.22-16.88,14.52-27.55,18.89-10.67,4.37-22.39,6.56-35.16,6.56h-3.41c-12.59,0-24.23-2.19-34.9-6.56-10.67-4.37-19.86-10.67-27.55-18.89-7.7-8.22-13.69-17.97-17.98-29.26-4.29-11.28-6.43-23.83-6.43-37.66v-5.25ZM39.49,815.41c2.71,7.61,6.34,14.08,10.89,19.42,4.55,5.34,9.97,9.45,16.27,12.33,6.3,2.89,13.21,4.33,20.73,4.33h2.62c7.52,0,14.43-1.44,20.73-4.33,6.3-2.88,11.72-7,16.27-12.33,4.55-5.34,8.09-11.81,10.63-19.42,2.53-7.61,3.8-16.14,3.8-25.58v-5.25c0-9.45-1.27-17.97-3.8-25.58-2.54-7.61-6.08-14.04-10.63-19.29-4.55-5.25-9.97-9.36-16.27-12.33-6.3-2.97-13.21-4.46-20.73-4.46h-2.62c-7.52,0-14.43,1.49-20.73,4.46-6.3,2.98-11.77,7.09-16.4,12.33-4.64,5.25-8.27,11.67-10.89,19.29-2.62,7.61-3.94,16.14-3.94,25.58v5.25c0,9.45,1.35,17.97,4.07,25.58Z"/>
    <path class="cls-1" d="M199.69,742.6h25.72c.87,2.1,1.61,4.64,2.23,7.61.61,2.98,1.09,5.86,1.44,8.66,5.25-5.94,11.59-10.58,19.02-13.91,7.43-3.32,15.61-4.99,24.54-4.99h2.36c8.75,0,16.84,1.62,24.27,4.85,7.43,3.24,13.82,7.83,19.15,13.78,5.33,5.95,9.49,13.03,12.46,21.25,2.97,8.23,4.46,17.32,4.46,27.29v7.35c0,9.97-1.49,19.02-4.46,27.16-2.98,8.14-7.13,15.22-12.46,21.26-5.34,6.03-11.72,10.67-19.15,13.91-7.44,3.24-15.53,4.85-24.27,4.85h-2.36c-8.22,0-15.7-1.36-22.44-4.07-6.74-2.71-12.73-6.69-17.97-11.94v65.86h-32.54v-188.93ZM267.91,855.69c5.07,0,9.66-1.05,13.78-3.15,4.11-2.1,7.61-4.94,10.5-8.53,2.89-3.58,5.16-8,6.82-13.25,1.66-5.25,2.49-10.93,2.49-17.06v-6.56c0-6.12-.83-11.72-2.49-16.79-1.66-5.07-3.94-9.4-6.82-12.99-2.89-3.58-6.39-6.38-10.5-8.4-4.11-2.01-8.71-3.02-13.78-3.02h-2.1c-5.08,0-9.67,1.01-13.78,3.02-4.11,2.01-7.65,4.85-10.63,8.53-2.98,3.67-5.29,8-6.95,12.99-1.66,4.98-2.49,10.54-2.49,16.66v6.56c0,6.12.87,11.81,2.62,17.06,1.75,5.25,4.11,9.67,7.08,13.25,2.97,3.59,6.47,6.43,10.5,8.53,4.02,2.1,8.57,3.15,13.64,3.15h2.1Z"/>
    <path class="cls-1" d="M387.3,876.69c-8.22-3.32-15.31-7.91-21.25-13.78-5.95-5.86-10.54-12.95-13.78-21.26-3.24-8.31-4.85-17.45-4.85-27.42v-5.25c0-10.14,1.66-19.42,4.99-27.81,3.32-8.4,7.83-15.61,13.51-21.65,5.68-6.03,12.6-10.76,20.73-14.17,8.13-3.41,17.1-5.12,26.9-5.12h3.15c8.92,0,17.14,1.53,24.66,4.59,7.52,3.06,13.99,7.39,19.42,12.99,5.42,5.6,9.58,12.2,12.46,19.81,2.89,7.61,4.33,16.14,4.33,25.58v17.84h-97.61c.53,4.9,1.71,9.45,3.54,13.64,1.84,4.2,4.33,7.7,7.48,10.5,3.15,2.8,6.91,5.03,11.28,6.69,4.37,1.66,9.18,2.49,14.43,2.49h2.62c8.22,0,15.35-1.71,21.39-5.12,6.03-3.41,11.06-7.65,15.09-12.73l18.11,19.68c-3.33,3.85-7.09,7.35-11.28,10.49-4.2,3.15-8.66,5.77-13.38,7.87-4.72,2.1-9.71,3.8-14.96,5.12-5.25,1.31-10.59,1.97-16.01,1.97h-3.67c-9.97,0-19.07-1.66-27.29-4.98ZM446.87,799.02v-.53c-.35-5.07-1.31-9.62-2.89-13.64-1.57-4.02-3.67-7.48-6.3-10.36-2.62-2.89-5.77-5.07-9.45-6.56-3.67-1.48-7.79-2.23-12.33-2.23h-2.36c-4.37,0-8.44.79-12.2,2.36-3.76,1.57-7.04,3.76-9.84,6.56-2.8,2.8-5.12,6.25-6.95,10.36s-3.19,8.79-4.07,14.04h66.39Z"/>
    <path class="cls-1" d="M498.56,742.6h25.45c1.05,2.63,1.97,5.77,2.76,9.45.79,3.67,1.27,7,1.44,9.97,5.77-6.82,12.68-12.2,20.73-16.14,8.04-3.94,16.88-5.9,26.5-5.9h1.31c15.04,0,26.54,4.46,34.51,13.38,7.96,8.92,11.94,21.69,11.94,38.31v87.38h-32.54v-80.56c0-9.97-2.01-17.49-6.04-22.57-4.03-5.07-10.41-7.61-19.16-7.61h-1.57c-4.9,0-9.36.88-13.38,2.63-4.03,1.75-7.48,4.2-10.36,7.35-2.89,3.15-5.16,6.91-6.82,11.28-1.66,4.37-2.49,9.36-2.49,14.96v74.52h-32.28v-136.45Z"/>
    <path class="cls-1" d="M11.02,934.54h49.07l41.72,114.67h1.84l41.46-114.67h49.07v183.68h-33.59v-142.22h-1.57l-43.03,117.3h-26.5l-43.03-117.3h-1.84v142.22H11.02v-183.68Z"/>
    <path class="cls-1" d="M246.13,1117.96c-5.6-1.92-10.41-4.63-14.43-8.14-4.03-3.5-7.13-7.74-9.32-12.73-2.19-4.99-3.28-10.54-3.28-16.66v-2.63c0-14.69,6.3-25.67,18.89-32.93,12.6-7.26,32.01-10.89,58.25-10.89h11.02v-5.77c0-6.99-2.19-12.5-6.56-16.53-4.38-4.02-10.76-6.03-19.16-6.03h-1.57c-6.65,0-13.51,1.18-20.6,3.54-7.09,2.36-13.95,5.82-20.6,10.36l-12.86-23.09c8.22-5.42,17.19-9.66,26.9-12.73,9.71-3.06,19.55-4.59,29.52-4.59h2.36c8.22,0,15.65,1.09,22.31,3.28,6.65,2.19,12.29,5.43,16.92,9.71,4.63,4.29,8.13,9.49,10.5,15.61,2.36,6.13,3.54,13.04,3.54,20.73v61.67c0,4.9.48,9.71,1.44,14.43.96,4.72,2.14,9.27,3.54,13.64h-30.96c-1.05-1.92-1.84-4.33-2.36-7.21-.52-2.89-.96-5.73-1.31-8.53-5.77,5.78-12.42,10.28-19.94,13.51-7.52,3.24-15.57,4.85-24.14,4.85-6.47,0-12.51-.96-18.1-2.88ZM291.13,1090.15c6.21-2.97,11.59-7.09,16.14-12.33v-22.83h-8.13c-16.79,0-29.13,1.7-37,5.12-7.87,3.41-11.81,8.79-11.81,16.14v1.31c0,2.62.53,4.94,1.57,6.95,1.05,2.01,2.49,3.81,4.33,5.38s4.07,2.76,6.69,3.54c2.62.79,5.42,1.18,8.4,1.18,7,0,13.6-1.48,19.81-4.46Z"/>
    <path class="cls-1" d="M367.62,981.77h25.45c.87,2.45,1.71,5.43,2.49,8.92.79,3.5,1.27,6.65,1.44,9.45,5.07-5.77,11.06-10.27,17.97-13.51,6.91-3.23,14.56-4.85,22.96-4.85h3.67v31.23c-1.23-.35-2.8-.61-4.72-.79-1.93-.17-3.67-.26-5.25-.26-5.25,0-9.8.7-13.65,2.1-3.85,1.4-7.08,3.54-9.71,6.43-2.62,2.88-4.64,6.47-6.04,10.76-1.4,4.29-2.1,9.23-2.1,14.83v72.16h-32.54v-136.45Z"/>
    <path class="cls-1" d="M460.25,929.29h32.54v109.95h2.1l50.12-57.47h36.47l-57.47,63.24,59.04,73.21h-38.84l-49.33-64.81h-2.1v64.81h-32.54v-188.93Z"/>
    <path class="cls-1" d="M620.84,1115.86c-8.22-3.32-15.31-7.91-21.25-13.78-5.95-5.86-10.54-12.95-13.78-21.26-3.24-8.31-4.85-17.45-4.85-27.42v-5.25c0-10.14,1.66-19.42,4.99-27.81,3.32-8.4,7.83-15.61,13.51-21.65,5.68-6.03,12.6-10.76,20.73-14.17,8.13-3.41,17.1-5.12,26.9-5.12h3.15c8.92,0,17.14,1.53,24.67,4.59,7.52,3.06,13.99,7.39,19.42,12.99,5.42,5.6,9.58,12.2,12.46,19.81s4.33,16.14,4.33,25.58v17.84h-97.61c.53,4.9,1.71,9.45,3.54,13.64,1.84,4.2,4.33,7.7,7.48,10.5,3.15,2.8,6.91,5.03,11.28,6.69,4.37,1.66,9.18,2.49,14.43,2.49h2.63c8.22,0,15.35-1.71,21.38-5.12,6.03-3.41,11.06-7.65,15.09-12.73l18.1,19.68c-3.32,3.85-7.08,7.35-11.28,10.49-4.2,3.15-8.66,5.77-13.38,7.87-4.73,2.1-9.71,3.8-14.96,5.12-5.25,1.31-10.59,1.97-16.01,1.97h-3.67c-9.97,0-19.07-1.66-27.29-4.98ZM680.41,1038.19v-.53c-.35-5.07-1.31-9.62-2.89-13.64-1.57-4.02-3.67-7.48-6.29-10.36-2.63-2.89-5.78-5.07-9.45-6.56-3.67-1.48-7.79-2.23-12.33-2.23h-2.36c-4.37,0-8.44.79-12.2,2.36-3.76,1.57-7.04,3.76-9.84,6.56-2.8,2.8-5.12,6.25-6.95,10.36s-3.19,8.79-4.07,14.04h66.39Z"/>
    <path class="cls-1" d="M759.25,1117.04c-4.81-1.66-8.88-4.2-12.2-7.61-3.32-3.41-5.86-7.7-7.61-12.86-1.75-5.16-2.62-11.33-2.62-18.5v-70.06h-18.11v-22.04c2.45-.87,5.29-1.71,8.53-2.49,3.23-.79,6.43-1.27,9.58-1.45v-31.75l32.27-3.94v35.42h37.26v26.24h-37.52v63.77c0,7.52,1.4,12.69,4.2,15.48,2.8,2.8,6.82,4.2,12.07,4.2,1.75,0,3.58-.04,5.51-.13,1.92-.09,3.94-.3,6.03-.66,2.1-.35,4.15-.7,6.17-1.05,2.01-.35,3.63-.7,4.85-1.05v25.72c-4.03,1.93-9.14,3.28-15.35,4.07-6.21.79-11.77,1.18-16.66,1.18-6.13,0-11.59-.83-16.4-2.49Z"/>
    <path class="cls-1" d="M842.17,1115.86c-10.41-3.5-19.64-8.4-27.68-14.69l16.27-23.62c2.97,2.8,6.21,5.16,9.71,7.09,3.5,1.93,7.17,3.59,11.02,4.99,3.85,1.4,7.78,2.49,11.81,3.28,4.02.79,7.96,1.18,11.81,1.18,3.5,0,6.6-.3,9.32-.92,2.71-.61,4.94-1.53,6.69-2.76,1.75-1.22,3.1-2.8,4.07-4.72.96-1.92,1.44-4.02,1.44-6.3,0-3.5-.88-6.17-2.62-8-1.75-1.84-4.33-3.41-7.74-4.72-3.41-1.31-7.52-2.58-12.33-3.81-4.81-1.22-10.28-2.97-16.4-5.25-4.55-1.22-9.1-2.71-13.65-4.46-4.55-1.75-8.66-4.02-12.33-6.82-3.67-2.79-6.56-6.34-8.66-10.63-2.1-4.29-3.15-9.4-3.15-15.35,0-6.47,1.14-12.24,3.41-17.32,2.27-5.07,5.55-9.36,9.84-12.86,4.29-3.5,9.49-6.25,15.61-8.27,6.12-2.01,12.94-3.02,20.47-3.02,9.62,0,19.02,1.57,28.21,4.72,9.18,3.15,17.36,7.26,24.54,12.33l-15.22,23.09c-5.6-4.02-11.72-7.21-18.37-9.58-6.65-2.36-13.38-3.54-20.21-3.54-2.97,0-5.6.26-7.87.79-2.27.52-4.2,1.36-5.77,2.49s-2.8,2.49-3.67,4.07c-.88,1.57-1.31,3.5-1.31,5.77,0,2.8.92,5.12,2.76,6.96,1.84,1.84,4.16,3.45,6.96,4.85,2.79,1.4,6.12,2.54,9.97,3.41,3.85.88,7.87,1.84,12.07,2.88,5.42,1.23,10.93,2.76,16.53,4.59,5.6,1.84,10.63,4.29,15.09,7.35,4.46,3.06,8.09,6.91,10.89,11.55,2.79,4.64,4.2,10.63,4.2,17.98,0,6.65-1.23,12.55-3.67,17.71-2.45,5.16-5.9,9.54-10.36,13.12-4.46,3.59-9.93,6.43-16.4,8.53-6.47,2.1-13.64,3.15-21.52,3.15-12.07,0-23.31-1.75-33.72-5.25Z"/>
    <path class="cls-1" d="M11.02,1173.72h34.37v183.68H11.02v-183.68Z"/>
    <path class="cls-1" d="M79.24,1220.95h25.45c1.05,2.63,1.97,5.77,2.76,9.45.79,3.67,1.27,7,1.44,9.97,5.77-6.82,12.68-12.2,20.73-16.14,8.04-3.94,16.88-5.9,26.5-5.9h1.31c15.04,0,26.54,4.46,34.51,13.38,7.96,8.92,11.94,21.69,11.94,38.31v87.38h-32.54v-80.56c0-9.97-2.01-17.49-6.04-22.57-4.03-5.07-10.41-7.61-19.16-7.61h-1.57c-4.9,0-9.36.88-13.38,2.63-4.03,1.75-7.48,4.2-10.36,7.35-2.89,3.15-5.16,6.91-6.82,11.28-1.66,4.37-2.49,9.36-2.49,14.96v74.52h-32.28v-136.45Z"/>
    <path class="cls-1" d="M234.06,1194.97c-3.5-3.15-5.25-7.35-5.25-12.6s1.75-9.53,5.25-12.86c3.5-3.32,8.04-4.98,13.65-4.98s10.45,1.66,14.04,4.98c3.58,3.33,5.38,7.61,5.38,12.86s-1.8,9.45-5.38,12.6c-3.59,3.15-8.27,4.72-14.04,4.72s-10.15-1.57-13.65-4.72ZM231.7,1220.95h32.54v136.45h-32.54v-136.45Z"/>
    <path class="cls-1" d="M321.83,1356.22c-4.81-1.66-8.88-4.2-12.2-7.61-3.32-3.41-5.86-7.7-7.61-12.86-1.75-5.16-2.62-11.33-2.62-18.5v-70.06h-18.1v-22.04c2.45-.87,5.29-1.71,8.53-2.49,3.23-.79,6.43-1.27,9.58-1.45v-31.75l32.28-3.94v35.42h37.26v26.24h-37.52v63.77c0,7.52,1.4,12.69,4.2,15.48,2.8,2.8,6.82,4.2,12.07,4.2,1.75,0,3.58-.04,5.51-.13,1.92-.09,3.94-.3,6.04-.66,2.1-.35,4.15-.7,6.17-1.05,2.01-.35,3.63-.7,4.85-1.05v25.72c-4.03,1.93-9.14,3.28-15.35,4.07-6.21.79-11.77,1.18-16.66,1.18-6.12,0-11.59-.83-16.4-2.49Z"/>
    <path class="cls-1" d="M392.28,1194.97c-3.5-3.15-5.25-7.35-5.25-12.6s1.75-9.53,5.25-12.86c3.5-3.32,8.04-4.98,13.65-4.98s10.45,1.66,14.04,4.98c3.58,3.33,5.38,7.61,5.38,12.86s-1.8,9.45-5.38,12.6c-3.59,3.15-8.27,4.72-14.04,4.72s-10.15-1.57-13.65-4.72ZM389.92,1220.95h32.54v136.45h-32.54v-136.45Z"/>
    <path class="cls-1" d="M471,1357.13c-5.6-1.92-10.41-4.63-14.43-8.14-4.03-3.5-7.13-7.74-9.32-12.73-2.19-4.99-3.28-10.54-3.28-16.66v-2.63c0-14.69,6.3-25.67,18.89-32.93,12.6-7.26,32.01-10.89,58.25-10.89h11.02v-5.77c0-6.99-2.19-12.5-6.56-16.53-4.38-4.02-10.76-6.03-19.16-6.03h-1.57c-6.65,0-13.51,1.18-20.6,3.54-7.09,2.36-13.95,5.82-20.6,10.36l-12.86-23.09c8.22-5.42,17.19-9.66,26.9-12.73,9.71-3.06,19.55-4.59,29.52-4.59h2.36c8.22,0,15.65,1.09,22.31,3.28,6.65,2.19,12.29,5.43,16.92,9.71,4.63,4.29,8.13,9.49,10.5,15.61,2.36,6.13,3.54,13.04,3.54,20.73v61.67c0,4.9.48,9.71,1.44,14.43.96,4.72,2.14,9.27,3.54,13.64h-30.96c-1.05-1.92-1.84-4.33-2.36-7.21-.52-2.89-.96-5.73-1.31-8.53-5.77,5.78-12.42,10.28-19.94,13.51-7.52,3.24-15.57,4.85-24.14,4.85-6.47,0-12.51-.96-18.1-2.88ZM516,1329.32c6.21-2.97,11.59-7.09,16.14-12.33v-22.83h-8.13c-16.79,0-29.13,1.7-37,5.12-7.87,3.41-11.81,8.79-11.81,16.14v1.31c0,2.62.53,4.94,1.57,6.95,1.05,2.01,2.49,3.81,4.33,5.38s4.07,2.76,6.69,3.54c2.62.79,5.42,1.18,8.4,1.18,7,0,13.6-1.48,19.81-4.46Z"/>
    <path class="cls-1" d="M618.08,1356.22c-4.81-1.66-8.88-4.2-12.2-7.61-3.32-3.41-5.86-7.7-7.61-12.86-1.75-5.16-2.62-11.33-2.62-18.5v-70.06h-18.1v-22.04c2.45-.87,5.29-1.71,8.53-2.49,3.23-.79,6.43-1.27,9.58-1.45v-31.75l32.28-3.94v35.42h37.26v26.24h-37.52v63.77c0,7.52,1.4,12.69,4.2,15.48,2.8,2.8,6.82,4.2,12.07,4.2,1.75,0,3.58-.04,5.51-.13,1.92-.09,3.94-.3,6.04-.66,2.1-.35,4.15-.7,6.16-1.05,2.01-.35,3.63-.7,4.86-1.05v25.72c-4.03,1.93-9.14,3.28-15.35,4.07-6.21.79-11.76,1.18-16.66,1.18-6.12,0-11.59-.83-16.4-2.49Z"/>
    <path class="cls-1" d="M688.53,1194.97c-3.5-3.15-5.25-7.35-5.25-12.6s1.75-9.53,5.25-12.86c3.5-3.32,8.05-4.98,13.65-4.98s10.45,1.66,14.04,4.98c3.58,3.33,5.38,7.61,5.38,12.86s-1.79,9.45-5.38,12.6c-3.59,3.15-8.27,4.72-14.04,4.72s-10.15-1.57-13.65-4.72ZM686.17,1220.95h32.54v136.45h-32.54v-136.45Z"/>
    <path class="cls-1" d="M733.93,1220.95h34.37l32.02,106.54h2.62l31.75-106.54h34.38l-47.23,136.45h-40.93l-46.97-136.45Z"/>
    <path class="cls-1" d="M909.74,1355.04c-8.23-3.32-15.31-7.91-21.26-13.78-5.95-5.86-10.54-12.95-13.78-21.26-3.24-8.31-4.85-17.45-4.85-27.42v-5.25c0-10.14,1.66-19.42,4.99-27.81,3.32-8.4,7.83-15.61,13.51-21.65,5.69-6.03,12.6-10.76,20.73-14.17,8.13-3.41,17.09-5.12,26.9-5.12h3.15c8.92,0,17.14,1.53,24.67,4.59,7.52,3.06,13.99,7.39,19.42,12.99,5.42,5.6,9.58,12.2,12.46,19.81,2.89,7.61,4.33,16.14,4.33,25.58v17.84h-97.61c.52,4.9,1.7,9.45,3.54,13.64s4.33,7.7,7.48,10.5c3.15,2.8,6.91,5.03,11.28,6.69,4.37,1.66,9.18,2.49,14.43,2.49h2.63c8.22,0,15.35-1.71,21.39-5.12,6.03-3.41,11.06-7.65,15.09-12.73l18.1,19.68c-3.32,3.85-7.08,7.35-11.28,10.49-4.2,3.15-8.66,5.77-13.38,7.87-4.72,2.1-9.71,3.8-14.96,5.12-5.25,1.31-10.59,1.97-16.01,1.97h-3.67c-9.97,0-19.07-1.66-27.29-4.98ZM969.3,1277.36v-.53c-.35-5.07-1.31-9.62-2.89-13.64-1.57-4.02-3.67-7.48-6.3-10.36-2.63-2.89-5.77-5.07-9.45-6.56-3.67-1.48-7.79-2.23-12.33-2.23h-2.36c-4.38,0-8.44.79-12.2,2.36-3.76,1.57-7.05,3.76-9.84,6.56-2.8,2.8-5.12,6.25-6.95,10.36s-3.19,8.79-4.07,14.04h66.39Z"/>
  </g>
  <path class="cls-1" d="M848.98,555.41V0h137.1v555.41h-137.1ZM639.82,555.41V89.64h137.11v465.77h-137.11ZM191.64,555.41v-137.1h188.06c28.1,0,50.97-22.86,50.97-50.97v-188.07h137.11v188.07c0,103.7-84.37,188.07-188.07,188.07h-188.06ZM12.36,376.14v-188.07C12.36,84.37,96.73,0,200.43,0h188.07v137.1h-188.07c-28.1,0-50.97,22.86-50.97,50.96v188.07H12.36Z"/>
</svg>